<?xml version="1.0" standalone="no"?>
<!DOCTYPE svg PUBLIC "-//W3C//DTD SVG 20010904//EN"
 "http://www.w3.org/TR/2001/REC-SVG-20010904/DTD/svg10.dtd">
<svg version="1.0" xmlns="http://www.w3.org/2000/svg"
 width="2000.000000pt" height="2000.000000pt" viewBox="0 0 2000.000000 2000.000000"
 preserveAspectRatio="xMidYMid meet">
<metadata>
Created by potrace 1.11, written by Peter Selinger 2001-2013
</metadata>
<g transform="translate(0.000000,2000.000000) scale(0.100000,-0.100000)"
fill="#000000" stroke="none">
<path d="M9294 18922 c-6 -9 -35 -15 -84 -18 -79 -5 -195 -19 -195 -24 0 -1
-22 -3 -50 -5 -87 -7 -135 -13 -173 -21 -20 -4 -53 -8 -72 -9 -19 -1 -51 -6
-70 -12 -19 -5 -43 -9 -54 -7 -10 1 -28 -1 -41 -6 -12 -4 -42 -9 -66 -11 -24
-1 -49 -6 -54 -10 -6 -5 -28 -9 -49 -11 -20 -1 -40 -6 -42 -10 -3 -4 -25 -8
-49 -8 -24 0 -47 -4 -50 -10 -3 -5 -24 -10 -45 -10 -21 0 -42 -4 -45 -10 -3
-5 -16 -8 -28 -6 -12 2 -31 -1 -41 -7 -11 -5 -31 -11 -45 -13 -14 -1 -51 -9
-83 -18 -31 -8 -68 -17 -81 -20 -14 -2 -34 -9 -44 -14 -10 -5 -24 -7 -31 -5
-7 3 -21 -2 -31 -11 -10 -9 -21 -13 -24 -9 -6 5 -55 -6 -107 -25 -8 -3 -22 -6
-30 -7 -8 -1 -22 -4 -30 -8 -19 -7 -87 -28 -103 -31 -7 -2 -20 -6 -29 -10 -9
-4 -23 -9 -32 -10 -8 -1 -19 -5 -22 -9 -4 -4 -18 -7 -30 -7 -13 0 -26 -4 -29
-10 -3 -5 -16 -10 -29 -10 -12 0 -26 -3 -30 -7 -3 -4 -14 -8 -22 -9 -9 -1 -23
-6 -32 -10 -21 -9 -21 -9 -57 -19 -16 -4 -39 -13 -50 -19 -11 -5 -22 -11 -25
-11 -34 -8 -67 -19 -75 -25 -5 -4 -31 -13 -57 -21 -27 -7 -48 -18 -48 -23 0
-5 -3 -7 -6 -3 -4 3 -19 0 -35 -9 -16 -8 -30 -14 -31 -14 -4 2 -40 -11 -73
-25 -16 -8 -69 -29 -116 -48 -47 -19 -94 -39 -105 -45 -10 -5 -30 -14 -44 -20
-14 -6 -60 -27 -102 -46 -43 -20 -82 -36 -88 -36 -5 0 -10 -4 -10 -10 0 -5 -8
-10 -18 -10 -10 0 -23 -5 -30 -12 -7 -7 -12 -8 -12 -3 0 4 -9 0 -21 -11 -12
-10 -23 -18 -25 -16 -5 3 -76 -29 -84 -37 -3 -4 -61 -34 -130 -69 -146 -73
-182 -93 -192 -107 -4 -5 -8 -7 -8 -3 0 4 -24 -7 -52 -24 -29 -17 -69 -40 -88
-50 -60 -34 -103 -60 -157 -95 -28 -18 -56 -33 -62 -33 -6 0 -11 -4 -11 -10 0
-5 -5 -10 -10 -10 -12 0 -94 -52 -98 -62 -2 -5 -10 -8 -18 -8 -8 0 -14 -4 -14
-10 0 -5 -5 -10 -11 -10 -19 0 -500 -337 -556 -390 -13 -11 -23 -18 -23 -14 0
4 -12 -5 -26 -20 -15 -14 -42 -35 -60 -47 -19 -11 -34 -24 -34 -29 0 -5 -8
-11 -17 -15 -10 -3 -37 -22 -59 -43 -23 -20 -50 -44 -60 -52 -278 -223 -662
-593 -979 -944 -44 -49 -84 -96 -89 -105 -5 -8 -19 -25 -31 -37 -12 -12 -39
-44 -61 -70 -21 -27 -41 -51 -45 -54 -3 -3 -18 -22 -34 -44 -16 -21 -41 -52
-57 -68 -15 -16 -30 -38 -33 -49 -4 -10 -10 -19 -15 -19 -5 0 -24 -21 -41 -47
-18 -27 -35 -50 -38 -53 -7 -6 -61 -76 -81 -106 -27 -41 -199 -288 -235 -339
-20 -27 -38 -58 -41 -67 -4 -10 -10 -18 -14 -18 -4 0 -13 -13 -20 -30 -7 -16
-16 -30 -21 -30 -5 0 -9 -9 -9 -20 0 -11 -3 -20 -8 -20 -4 0 -34 -45 -67 -100
-32 -55 -62 -100 -66 -100 -5 0 -6 -7 -3 -15 4 -8 2 -15 -2 -15 -5 0 -20 -21
-34 -47 -13 -27 -27 -50 -30 -53 -3 -3 -15 -25 -28 -49 -35 -67 -56 -106 -63
-111 -3 -3 -12 -22 -20 -42 -7 -21 -17 -38 -22 -38 -5 0 -7 -8 -5 -17 2 -11
-13 -34 -35 -56 -21 -20 -36 -41 -33 -46 3 -5 -8 -19 -24 -31 -17 -13 -30 -29
-30 -36 0 -7 -12 -25 -28 -41 -30 -30 -42 -48 -72 -110 -12 -24 -25 -43 -30
-43 -5 0 -12 -11 -16 -25 -3 -14 -10 -25 -15 -25 -5 0 -9 -9 -9 -20 0 -11 -5
-20 -10 -20 -6 0 -9 -3 -8 -7 1 -5 -2 -17 -8 -28 -6 -11 -10 -27 -9 -35 1 -8
3 -22 3 -31 2 -12 10 -16 32 -14 26 2 28 0 20 -16 -6 -10 -15 -21 -20 -24 -6
-4 -7 -11 -4 -17 4 -6 1 -14 -6 -18 -8 -5 -15 -18 -17 -30 -2 -11 -10 -34 -18
-50 -8 -16 -15 -36 -15 -45 0 -8 -4 -15 -10 -15 -5 0 -10 -11 -10 -24 0 -13
-3 -26 -7 -28 -8 -3 -39 -84 -48 -122 -2 -10 -9 -24 -16 -32 -6 -8 -8 -14 -3
-14 4 0 3 -5 -4 -12 -7 -7 -12 -21 -12 -33 0 -12 -4 -25 -9 -30 -10 -11 -43
-102 -45 -127 -1 -9 -7 -22 -13 -30 -6 -7 -13 -24 -16 -38 -13 -61 -17 -73
-27 -84 -5 -7 -7 -15 -4 -18 3 -4 -2 -20 -11 -37 -8 -17 -13 -31 -10 -31 3 0
0 -10 -7 -22 -7 -13 -11 -29 -10 -36 2 -7 -3 -19 -11 -27 -8 -8 -12 -25 -10
-39 3 -16 1 -26 -6 -26 -7 0 -11 -8 -9 -17 1 -10 -1 -23 -4 -29 -4 -6 -10 -26
-13 -44 -3 -18 -10 -42 -16 -52 -6 -11 -8 -22 -6 -25 3 -2 -1 -20 -9 -39 -8
-19 -11 -34 -8 -34 4 0 2 -6 -4 -13 -6 -7 -13 -28 -16 -47 -3 -19 -10 -53 -15
-75 -23 -92 -32 -132 -36 -163 -2 -19 -8 -39 -13 -45 -4 -7 -8 -21 -7 -32 0
-11 -3 -28 -8 -38 -4 -9 -10 -35 -12 -57 -2 -23 -7 -45 -10 -50 -3 -5 -8 -28
-10 -50 -2 -22 -7 -45 -10 -51 -4 -5 -7 -30 -7 -54 0 -25 -4 -45 -10 -45 -5 0
-9 -12 -8 -27 1 -16 1 -30 0 -33 -4 -12 -12 -59 -16 -100 -4 -44 -11 -85 -14
-85 -1 0 -4 -25 -6 -55 -2 -30 -7 -62 -11 -70 -3 -8 -8 -44 -9 -79 -2 -36 -6
-76 -10 -90 -4 -14 -8 -57 -9 -96 -2 -71 -18 -130 -33 -121 -4 3 -8 -327 -8
-732 0 -694 1 -737 18 -754 19 -19 19 -22 22 -115 1 -32 6 -73 10 -91 4 -18 9
-61 11 -95 2 -34 7 -78 10 -97 4 -19 8 -48 9 -65 1 -16 5 -35 9 -42 4 -7 10
-38 12 -70 5 -69 12 -119 21 -153 4 -14 8 -44 9 -67 2 -22 6 -47 10 -54 5 -6
9 -29 11 -50 2 -21 8 -47 14 -59 6 -11 8 -24 6 -29 -3 -5 0 -26 8 -47 7 -22
12 -49 11 -62 -1 -12 4 -27 10 -32 7 -6 11 -22 9 -37 -1 -15 1 -32 5 -38 5 -5
11 -26 14 -45 3 -19 11 -55 17 -80 6 -25 13 -58 15 -74 3 -16 9 -34 13 -40 5
-6 8 -18 7 -26 -1 -8 5 -27 12 -42 7 -16 11 -28 9 -28 -3 0 -1 -12 5 -27 7
-16 12 -37 14 -48 1 -11 5 -28 9 -37 4 -9 9 -22 10 -30 4 -18 17 -71 22 -86 2
-7 4 -16 5 -20 0 -4 7 -23 15 -42 8 -19 15 -37 15 -40 -1 -8 21 -74 28 -85 4
-5 7 -17 6 -25 0 -8 3 -18 8 -21 6 -4 11 -15 12 -25 4 -38 18 -85 26 -90 5 -3
9 -16 9 -30 0 -13 5 -24 11 -24 5 0 8 -4 5 -8 -3 -5 2 -21 10 -36 7 -16 14
-37 14 -47 0 -11 5 -19 10 -19 6 0 10 -6 8 -12 -1 -7 4 -24 12 -38 7 -14 13
-26 12 -27 -2 -4 8 -34 21 -63 6 -14 11 -28 11 -32 1 -3 4 -10 9 -14 4 -4 7
-13 7 -20 0 -8 12 -39 26 -71 15 -31 27 -62 28 -67 1 -6 7 -21 14 -32 6 -12 8
-24 5 -28 -3 -3 -1 -6 5 -6 7 0 12 -5 12 -10 0 -6 26 -68 57 -138 32 -70 57
-129 56 -132 -1 -3 6 -13 14 -22 9 -10 12 -18 7 -18 -5 0 -4 -4 1 -8 6 -4 28
-45 50 -92 22 -47 43 -86 48 -88 4 -2 7 -12 7 -23 0 -11 7 -22 15 -25 8 -4 12
-11 9 -16 -4 -6 -3 -13 2 -17 5 -3 28 -42 50 -86 60 -116 78 -149 84 -155 3
-3 12 -18 20 -35 8 -16 27 -49 42 -71 15 -23 24 -44 21 -47 -3 -4 2 -9 11 -13
9 -3 16 -11 16 -17 0 -23 311 -506 419 -650 28 -37 51 -70 51 -72 0 -2 13 -19
30 -37 16 -18 30 -38 30 -45 0 -7 4 -13 8 -13 4 0 15 -12 24 -27 9 -16 27 -39
40 -53 13 -14 35 -41 50 -62 15 -20 34 -42 41 -50 7 -7 18 -20 23 -29 9 -17
56 -74 134 -164 25 -29 56 -65 70 -82 157 -186 426 -465 656 -680 156 -145
157 -145 314 -278 19 -16 37 -32 40 -35 3 -3 34 -29 70 -58 36 -29 75 -61 88
-72 13 -11 43 -34 68 -52 24 -17 44 -35 44 -40 0 -4 6 -8 14 -8 8 0 16 -3 18
-8 2 -4 28 -25 58 -47 69 -50 77 -56 101 -78 10 -9 21 -17 25 -17 3 0 37 -24
77 -53 40 -29 99 -70 132 -92 33 -22 62 -43 63 -47 2 -5 10 -8 18 -8 8 0 14
-4 14 -10 0 -5 7 -10 15 -10 8 0 15 -4 15 -10 0 -5 4 -10 10 -10 8 0 65 -34
95 -57 6 -5 51 -33 100 -62 50 -30 92 -57 95 -60 5 -6 55 -34 105 -59 17 -8
37 -20 45 -27 8 -7 44 -28 80 -47 129 -69 185 -101 198 -111 6 -5 12 -6 12 -1
0 5 4 4 8 -1 9 -13 273 -145 290 -145 6 0 12 -4 12 -10 0 -5 9 -10 20 -10 11
0 20 -4 20 -10 0 -5 7 -10 15 -10 8 0 30 -9 50 -20 19 -11 35 -17 35 -14 0 4
7 0 16 -7 9 -7 22 -14 29 -15 33 -5 70 -31 70 -49 0 -11 4 -26 8 -32 9 -14
137 -78 150 -75 4 1 7 -2 7 -7 0 -8 37 -24 52 -22 3 0 12 -6 18 -14 7 -8 23
-15 36 -15 12 0 26 -5 29 -10 4 -6 10 -8 15 -5 4 3 13 -2 20 -11 7 -8 18 -13
25 -11 6 3 19 -1 29 -9 11 -7 23 -11 28 -8 5 3 17 0 26 -8 14 -12 48 -15 95
-9 4 1 7 10 7 21 0 20 1 20 38 4 20 -9 43 -17 50 -18 7 -1 17 -7 23 -13 6 -6
18 -9 25 -6 8 3 20 1 27 -4 10 -9 104 -40 139 -47 7 -2 22 -6 33 -10 52 -20
72 -26 90 -29 11 -2 28 -7 37 -11 9 -4 23 -9 32 -10 8 -1 19 -5 22 -9 4 -4 20
-7 36 -7 15 0 28 -4 28 -9 0 -5 17 -12 38 -15 81 -13 95 -16 106 -24 6 -5 18
-8 26 -7 8 1 24 -3 35 -9 11 -6 29 -11 40 -11 11 0 26 -5 34 -9 8 -5 26 -10
40 -11 14 -1 33 -4 41 -8 8 -3 29 -8 45 -10 17 -3 57 -12 89 -21 32 -9 61 -14
63 -12 3 3 17 0 32 -6 14 -5 43 -11 63 -13 20 -2 42 -6 48 -10 6 -4 29 -9 51
-11 22 -3 51 -9 64 -14 13 -5 34 -7 46 -5 12 3 28 0 35 -6 7 -5 34 -11 61 -13
26 -1 55 -5 63 -9 8 -3 38 -8 65 -11 28 -3 84 -10 125 -16 41 -6 105 -12 141
-14 36 -2 74 -8 85 -13 10 -5 53 -10 94 -12 87 -2 130 -9 130 -21 0 -4 327 -8
728 -8 593 -1 733 2 757 13 17 7 71 15 121 17 49 3 96 8 104 13 7 5 41 10 74
11 105 5 190 15 211 24 11 5 47 11 80 14 81 8 137 16 155 23 8 4 26 7 40 8 14
1 41 5 60 8 19 4 46 9 60 11 14 2 36 8 50 14 14 5 34 8 44 6 11 -1 29 2 40 8
20 11 35 13 117 21 20 2 41 7 48 11 7 5 27 10 44 13 18 3 40 9 50 14 9 6 22 7
27 4 5 -3 19 -1 31 6 12 6 36 13 53 16 17 3 36 9 43 15 7 5 17 7 22 3 6 -3 19
-1 29 4 10 5 29 12 43 14 13 2 32 8 42 12 10 4 26 9 35 10 10 1 24 4 32 7 16
7 62 19 94 25 11 2 25 8 33 14 7 6 13 9 13 5 0 -3 16 0 35 8 19 8 35 13 35 10
0 -2 14 3 31 11 17 9 33 14 36 11 3 -3 15 1 25 9 11 7 26 11 33 9 7 -3 16 -1
20 5 3 6 17 11 30 11 13 0 27 5 30 11 4 6 13 8 20 5 8 -3 19 2 26 10 6 8 17
13 23 13 10 -2 35 6 86 28 8 3 22 7 30 7 8 0 21 6 28 13 7 7 19 10 27 7 8 -4
15 -1 15 5 0 6 6 11 14 11 12 0 77 24 151 55 83 36 104 43 109 37 3 -3 6 0 6
6 0 7 7 12 15 12 8 0 23 4 33 9 9 5 37 18 62 29 25 11 63 28 85 38 22 10 42
19 45 19 33 5 653 318 688 348 8 6 17 11 19 9 2 -1 13 4 26 11 86 53 129 77
137 77 6 0 10 5 10 10 0 6 4 10 9 10 7 0 50 25 176 103 10 7 80 51 154 99 73
49 137 88 142 88 4 0 9 4 11 8 2 5 32 28 68 52 36 24 70 49 77 54 34 30 43 36
53 36 5 0 10 3 10 8 0 4 18 18 40 32 22 14 40 28 40 32 0 5 5 8 10 8 6 0 16 5
23 10 29 25 57 47 87 70 19 14 74 58 124 98 50 40 98 78 106 85 38 30 137 112
151 126 9 9 44 41 79 71 248 216 661 636 846 860 16 19 38 45 49 56 11 12 36
41 54 64 19 23 40 48 46 54 6 6 24 29 40 51 17 22 32 42 35 45 3 3 18 23 35
45 16 22 35 44 42 48 7 4 13 13 13 19 0 6 15 28 33 48 17 21 43 54 57 75 14
20 30 42 35 48 6 7 22 28 35 47 13 19 27 37 30 40 3 3 23 32 45 65 22 33 43
62 48 63 4 2 7 7 7 12 0 7 108 171 130 197 5 7 10 16 10 21 0 4 7 17 15 27 33
43 105 161 105 173 0 6 3 12 8 12 4 0 18 21 32 48 13 26 27 49 30 52 3 3 11
16 17 30 7 14 24 43 38 65 13 22 29 51 35 64 6 13 20 37 31 52 11 16 17 29 14
29 -3 0 3 13 14 29 12 16 21 33 21 39 0 5 7 15 15 22 8 6 13 15 12 18 -2 10
56 126 66 130 4 2 5 7 2 12 -3 5 2 16 11 24 8 9 13 16 10 16 -4 0 4 17 17 38
13 20 24 39 24 42 0 3 11 28 24 55 12 28 24 52 24 55 1 3 14 32 30 65 16 33
29 62 30 65 0 3 13 31 28 64 15 32 27 65 27 72 0 8 5 14 10 14 6 0 10 7 10 15
0 8 5 25 12 38 25 50 28 58 23 67 -3 4 0 10 5 12 6 2 12 10 14 18 4 18 19 60
44 120 5 14 19 50 30 80 11 30 23 64 28 75 4 11 6 26 5 33 -1 6 3 12 9 12 5 0
10 9 10 19 0 11 10 41 22 68 12 26 20 52 19 57 -1 6 2 20 8 33 6 13 16 34 23
48 6 14 8 28 5 32 -4 3 -2 12 4 20 7 7 13 21 14 31 1 9 5 26 9 37 28 73 36 98
32 103 -3 3 -1 11 6 19 6 8 13 24 14 36 1 12 7 38 13 57 16 57 31 113 37 140
2 14 7 32 11 40 3 8 7 22 8 30 0 8 7 32 14 52 7 21 10 42 7 47 -3 5 1 14 8 21
8 6 13 21 11 32 -3 11 1 30 7 41 6 12 11 36 10 54 -1 18 3 33 8 33 6 0 10 20
10 45 0 25 4 45 8 45 5 0 9 18 10 41 1 22 5 46 9 52 4 7 8 23 8 37 1 14 6 41
13 60 6 19 10 44 8 55 -2 11 1 28 6 39 5 10 11 40 13 66 2 26 7 56 12 66 5 11
8 38 7 62 0 23 3 45 7 48 5 3 9 30 9 60 0 31 4 63 9 72 5 9 11 51 15 92 3 41
7 91 10 110 3 19 6 63 7 98 1 34 6 65 11 68 4 3 6 10 2 15 -3 5 -2 9 3 8 4 -1
13 -1 18 0 12 1 14 1471 2 1470 -19 -1 -34 37 -36 90 -1 31 -4 72 -6 91 -11
92 -26 212 -35 280 -5 41 -12 94 -14 117 -2 23 -7 55 -11 70 -5 15 -9 42 -10
58 -1 17 -5 41 -10 55 -5 14 -8 34 -6 45 1 11 -4 38 -12 60 -8 22 -13 49 -11
60 2 10 -2 25 -7 32 -6 6 -12 31 -14 55 -2 24 -9 63 -15 88 -6 25 -13 60 -15
77 -2 18 -8 41 -13 50 -4 10 -8 25 -7 33 1 8 -3 24 -9 35 -6 11 -9 25 -8 31 1
6 -5 30 -13 54 -8 24 -13 45 -10 48 2 2 -1 14 -7 26 -6 11 -13 30 -14 41 -4
32 -15 78 -23 100 -20 50 -32 97 -27 102 3 4 2 11 -3 17 -6 7 -12 23 -15 38
-2 14 -10 36 -16 48 -6 12 -9 24 -6 27 3 4 0 13 -7 21 -6 8 -12 22 -13 31 0 9
-3 23 -6 31 -4 8 -20 58 -38 110 -17 52 -34 102 -37 110 -3 8 -8 24 -10 34 -2
11 -8 25 -13 31 -5 7 -7 15 -3 18 3 4 -1 15 -10 24 -8 10 -15 20 -15 23 1 7
-12 51 -22 75 -9 22 -19 51 -21 63 0 4 -7 18 -14 32 -16 30 -28 61 -30 75 0 6
-6 20 -13 33 -7 12 -9 22 -5 22 4 0 2 4 -5 8 -7 5 -14 18 -16 29 -4 19 -11 37
-66 158 -13 28 -23 56 -23 63 0 6 -4 12 -8 12 -4 0 -13 17 -19 38 -7 20 -19
44 -26 53 -8 9 -11 19 -7 23 4 4 3 10 -3 14 -11 8 -49 82 -49 97 0 6 -3 12 -6
15 -4 3 -26 46 -51 95 -24 50 -51 101 -58 115 -8 14 -14 29 -15 33 0 4 -7 12
-15 17 -8 5 -11 10 -7 10 4 0 -6 26 -24 58 -18 31 -48 86 -67 122 -19 36 -44
76 -54 89 -10 13 -18 28 -18 32 0 5 -28 55 -63 112 -35 57 -66 111 -70 120 -4
10 -11 17 -17 17 -5 0 -10 6 -10 13 0 10 -103 176 -131 211 -51 63 -59 76 -50
76 5 0 13 -4 16 -10 10 -16 32 -12 39 7 5 12 -3 24 -24 41 -16 13 -30 27 -30
32 0 17 -59 95 -104 140 -25 24 -46 49 -46 55 0 13 -38 50 -57 56 -24 8 -143
132 -143 149 0 10 -7 24 -16 31 -9 7 -37 40 -62 74 -26 33 -54 67 -62 76 -8 9
-24 28 -35 41 -42 51 -121 142 -140 162 -11 12 -42 48 -70 81 -54 65 -499 514
-605 610 -102 93 -205 183 -236 207 -16 12 -36 29 -44 38 -8 8 -37 33 -65 55
-27 22 -57 45 -65 52 -197 161 -470 361 -655 480 -38 25 -71 50 -73 54 -2 5
-7 9 -11 9 -4 0 -87 50 -184 110 -97 61 -179 110 -182 110 -3 0 -22 11 -43 23
-20 13 -68 41 -107 62 -38 21 -90 49 -115 63 -98 54 -330 170 -330 165 0 -4
-8 1 -17 10 -10 8 -21 16 -25 17 -4 1 -47 19 -95 42 -119 55 -136 61 -149 59
-7 -1 -14 6 -18 14 -3 9 -10 14 -15 10 -5 -3 -12 -1 -16 5 -3 5 -14 10 -24 10
-10 0 -24 6 -31 14 -6 8 -18 12 -26 9 -8 -3 -14 0 -14 6 0 6 -7 11 -15 11 -8
0 -23 4 -33 9 -22 11 -81 36 -112 46 -7 2 -62 24 -80 32 -8 3 -17 7 -20 8 -12
4 -46 17 -65 25 -45 19 -60 24 -70 25 -5 0 -16 4 -23 8 -7 5 -24 11 -39 13
-14 3 -38 11 -54 19 -15 8 -36 16 -46 18 -10 1 -25 7 -33 12 -8 5 -19 10 -25
10 -15 1 -68 16 -90 25 -11 4 -33 13 -49 19 -16 7 -31 9 -34 7 -2 -3 -14 1
-26 9 -11 8 -30 15 -43 15 -12 0 -25 5 -29 11 -3 6 -14 9 -24 6 -9 -2 -25 0
-34 5 -9 5 -24 11 -34 13 -9 3 -35 9 -57 15 -22 6 -51 14 -65 16 -14 3 -34 9
-45 13 -19 8 -104 30 -132 35 -7 1 -16 5 -19 9 -4 4 -22 7 -40 7 -18 0 -35 4
-38 8 -3 5 -18 8 -33 7 -15 -1 -31 2 -34 7 -3 5 -21 11 -40 13 -89 12 -115 17
-134 25 -11 5 -36 11 -55 14 -74 10 -116 17 -130 23 -19 8 -114 23 -165 26
-22 2 -49 8 -60 14 -11 6 -33 10 -50 9 -16 -2 -44 1 -61 6 -18 5 -56 10 -85
11 -30 2 -63 8 -75 14 -11 7 -26 8 -34 3 -7 -4 -18 -6 -24 -4 -23 8 -138 23
-211 27 -70 4 -87 8 -97 22 -5 7 -264 10 -741 10 -612 1 -736 -1 -743 -13z"/>
</g>
</svg>
